<svg width="256" height="149" viewBox="0 0 256 149" fill="none" xmlns="http://www.w3.org/2000/svg">
<path d="M0 0H256V99C256 112.261 250.732 124.979 241.355 134.355C231.979 143.732 219.261 149 206 149H50C36.7392 149 24.0215 143.732 14.6447 134.355C5.26784 124.979 0 112.261 0 99L0 0Z" fill="#E0B973"/>
<path d="M77.2344 103.344V106.797C77.2344 107.141 77.25 107.422 77.2812 107.641C77.3229 107.849 77.3958 108.016 77.5 108.141C77.6146 108.266 77.7708 108.354 77.9688 108.406C78.1667 108.458 78.4323 108.484 78.7656 108.484V108.875C78.5573 108.865 78.2656 108.859 77.8906 108.859C77.5156 108.849 77.125 108.844 76.7188 108.844C76.3125 108.844 75.9167 108.849 75.5312 108.859C75.1562 108.859 74.8698 108.865 74.6719 108.875V108.5C74.974 108.5 75.2188 108.484 75.4062 108.453C75.6042 108.411 75.7604 108.333 75.875 108.219C75.9896 108.094 76.0677 107.922 76.1094 107.703C76.1615 107.474 76.1875 107.172 76.1875 106.797V99.1406C76.1875 98.8177 76.1615 98.5573 76.1094 98.3594C76.0677 98.1615 75.9896 98.0052 75.875 97.8906C75.7604 97.7865 75.6042 97.7188 75.4062 97.6875C75.2083 97.6458 74.9635 97.6198 74.6719 97.6094V97.2031C74.9323 97.2135 75.2604 97.224 75.6562 97.2344C76.0521 97.2344 76.4635 97.2344 76.8906 97.2344C77.3177 97.2344 77.7344 97.2344 78.1406 97.2344C78.5469 97.224 78.8906 97.2135 79.1719 97.2031C79.8802 97.2031 80.4635 97.3073 80.9219 97.5156C81.3906 97.7135 81.7604 97.9583 82.0312 98.25C82.2917 98.5521 82.474 98.875 82.5781 99.2188C82.6927 99.5521 82.75 99.8594 82.75 100.141C82.75 100.516 82.6823 100.865 82.5469 101.188C82.4219 101.5 82.25 101.781 82.0312 102.031C81.8125 102.292 81.5625 102.51 81.2812 102.688C81 102.865 80.7083 102.995 80.4062 103.078C80.6042 103.422 80.8333 103.797 81.0938 104.203C81.3646 104.599 81.6406 104.99 81.9219 105.375C82.2031 105.771 82.474 106.146 82.7344 106.5C83.0052 106.844 83.2396 107.13 83.4375 107.359C83.6875 107.672 83.9635 107.938 84.2656 108.156C84.5677 108.375 84.9167 108.484 85.3125 108.484V108.875C84.9375 108.854 84.5625 108.844 84.1875 108.844C83.8229 108.844 83.474 108.854 83.1406 108.875C82.8385 108.49 82.5208 108.057 82.1875 107.578C81.8542 107.099 81.5208 106.615 81.1875 106.125C80.8438 105.625 80.5104 105.135 80.1875 104.656C79.875 104.177 79.5885 103.74 79.3281 103.344H77.2344ZM77.2344 102.766C77.3594 102.797 77.5521 102.818 77.8125 102.828C78.0729 102.828 78.2812 102.828 78.4375 102.828C79.0208 102.828 79.5104 102.755 79.9062 102.609C80.3125 102.453 80.6406 102.25 80.8906 102C81.1406 101.76 81.3177 101.49 81.4219 101.188C81.5365 100.875 81.5938 100.562 81.5938 100.25C81.5938 99.8958 81.5365 99.5625 81.4219 99.25C81.3177 98.9375 81.1458 98.6667 80.9062 98.4375C80.6667 98.2083 80.3542 98.0312 79.9688 97.9062C79.5833 97.7708 79.1094 97.7031 78.5469 97.7031C78.3073 97.7031 78.0625 97.7135 77.8125 97.7344C77.5729 97.7448 77.3802 97.7604 77.2344 97.7812V102.766ZM96.8344 104.25C96.8031 104.406 96.7875 104.573 96.7875 104.75C96.7875 104.927 96.7979 105.156 96.8188 105.438C96.8708 106.229 97.1156 106.896 97.5531 107.438C97.9906 107.969 98.5896 108.234 99.35 108.234C99.8708 108.234 100.319 108.135 100.694 107.938C101.079 107.729 101.397 107.474 101.647 107.172L101.866 107.312C101.574 107.833 101.178 108.271 100.678 108.625C100.189 108.969 99.6365 109.141 99.0219 109.141C98.574 109.141 98.1573 109.047 97.7719 108.859C97.3969 108.672 97.0688 108.411 96.7875 108.078C96.5063 107.745 96.2823 107.354 96.1156 106.906C95.9594 106.458 95.8813 105.969 95.8813 105.438C95.8813 104.781 95.9646 104.193 96.1313 103.672C96.2979 103.151 96.5219 102.714 96.8031 102.359C97.0948 101.995 97.4333 101.719 97.8188 101.531C98.2146 101.344 98.6365 101.25 99.0844 101.25C99.3969 101.25 99.7094 101.302 100.022 101.406C100.334 101.51 100.616 101.667 100.866 101.875C101.116 102.094 101.319 102.37 101.475 102.703C101.631 103.026 101.715 103.411 101.725 103.859C101.725 103.984 101.709 104.078 101.678 104.141C101.647 104.193 101.569 104.229 101.444 104.25H96.8344ZM100.178 103.75C100.366 103.75 100.501 103.724 100.584 103.672C100.668 103.609 100.709 103.5 100.709 103.344C100.709 103.177 100.668 103 100.584 102.812C100.511 102.625 100.407 102.453 100.272 102.297C100.126 102.141 99.949 102.01 99.7406 101.906C99.5323 101.802 99.2927 101.75 99.0219 101.75C98.4281 101.75 97.949 101.938 97.5844 102.312C97.2302 102.677 96.9958 103.156 96.8813 103.75H100.178ZM113.044 106.641C113.075 106.859 113.122 107.089 113.184 107.328C113.257 107.568 113.361 107.786 113.497 107.984C113.632 108.182 113.809 108.344 114.028 108.469C114.257 108.594 114.549 108.656 114.903 108.656C115.497 108.656 115.903 108.531 116.122 108.281C116.351 108.021 116.466 107.734 116.466 107.422C116.466 107.182 116.414 106.979 116.309 106.812C116.216 106.635 116.091 106.479 115.934 106.344C115.778 106.208 115.596 106.089 115.388 105.984C115.179 105.87 114.966 105.755 114.747 105.641C114.216 105.359 113.757 105.042 113.372 104.688C112.986 104.323 112.794 103.875 112.794 103.344C112.794 103.073 112.851 102.812 112.966 102.562C113.08 102.312 113.242 102.089 113.45 101.891C113.658 101.703 113.908 101.552 114.2 101.438C114.502 101.312 114.841 101.25 115.216 101.25C115.466 101.25 115.742 101.286 116.044 101.359C116.356 101.422 116.653 101.531 116.934 101.688L117.059 103.406H116.731C116.658 102.875 116.492 102.469 116.231 102.188C115.971 101.896 115.575 101.75 115.044 101.75C114.638 101.75 114.283 101.854 113.981 102.062C113.679 102.26 113.528 102.531 113.528 102.875C113.528 103.125 113.585 103.344 113.7 103.531C113.815 103.708 113.966 103.87 114.153 104.016C114.341 104.151 114.554 104.276 114.794 104.391C115.033 104.505 115.278 104.615 115.528 104.719C115.768 104.833 116.002 104.953 116.231 105.078C116.46 105.203 116.664 105.354 116.841 105.531C117.007 105.698 117.143 105.896 117.247 106.125C117.361 106.344 117.419 106.599 117.419 106.891C117.419 107.172 117.367 107.448 117.263 107.719C117.158 107.99 116.997 108.229 116.778 108.438C116.559 108.656 116.283 108.828 115.95 108.953C115.617 109.078 115.226 109.141 114.778 109.141C114.466 109.141 114.132 109.094 113.778 109C113.424 108.906 113.122 108.781 112.872 108.625L112.684 106.641H113.044ZM135.988 105.156C135.988 105.708 135.889 106.229 135.691 106.719C135.493 107.198 135.227 107.615 134.894 107.969C134.56 108.333 134.17 108.62 133.722 108.828C133.284 109.036 132.816 109.141 132.316 109.141C131.795 109.141 131.3 109.052 130.831 108.875C130.363 108.698 129.951 108.438 129.597 108.094C129.243 107.76 128.961 107.354 128.753 106.875C128.545 106.385 128.441 105.839 128.441 105.234C128.441 104.693 128.529 104.182 128.706 103.703C128.894 103.214 129.149 102.786 129.472 102.422C129.805 102.068 130.196 101.786 130.644 101.578C131.092 101.359 131.581 101.25 132.113 101.25C132.654 101.25 133.159 101.344 133.628 101.531C134.107 101.708 134.519 101.969 134.863 102.312C135.206 102.646 135.477 103.057 135.675 103.547C135.883 104.026 135.988 104.562 135.988 105.156ZM134.831 105.328C134.831 104.943 134.784 104.536 134.691 104.109C134.597 103.672 134.446 103.276 134.238 102.922C134.019 102.557 133.738 102.26 133.394 102.031C133.06 101.792 132.649 101.672 132.159 101.672C131.691 101.672 131.29 101.776 130.956 101.984C130.633 102.193 130.373 102.458 130.175 102.781C129.977 103.115 129.831 103.484 129.738 103.891C129.654 104.286 129.613 104.677 129.613 105.062C129.613 105.427 129.659 105.823 129.753 106.25C129.847 106.667 129.998 107.057 130.206 107.422C130.415 107.786 130.685 108.094 131.019 108.344C131.363 108.583 131.784 108.703 132.284 108.703C132.753 108.703 133.149 108.599 133.472 108.391C133.795 108.182 134.055 107.911 134.253 107.578C134.461 107.255 134.607 106.896 134.691 106.5C134.784 106.094 134.831 105.703 134.831 105.328ZM148.947 102.969C149.103 102.76 149.28 102.557 149.478 102.359C149.676 102.151 149.874 101.964 150.072 101.797C150.28 101.641 150.483 101.516 150.681 101.422C150.879 101.318 151.067 101.266 151.244 101.266C151.494 101.266 151.713 101.333 151.9 101.469C152.088 101.594 152.181 101.771 152.181 102C152.181 102.25 152.103 102.443 151.947 102.578C151.801 102.703 151.66 102.766 151.525 102.766C151.4 102.766 151.301 102.75 151.228 102.719C151.155 102.677 151.082 102.63 151.009 102.578C150.936 102.526 150.853 102.479 150.759 102.438C150.676 102.396 150.561 102.375 150.416 102.375C150.322 102.375 150.192 102.422 150.025 102.516C149.858 102.609 149.697 102.729 149.541 102.875C149.374 103.021 149.233 103.193 149.119 103.391C149.004 103.578 148.947 103.771 148.947 103.969V107.281C148.947 107.531 148.963 107.74 148.994 107.906C149.035 108.062 149.119 108.182 149.244 108.266C149.369 108.349 149.546 108.406 149.775 108.438C150.004 108.469 150.311 108.484 150.697 108.484V108.875C150.457 108.865 150.16 108.859 149.806 108.859C149.452 108.849 149.088 108.844 148.713 108.844C148.338 108.844 147.973 108.849 147.619 108.859C147.265 108.859 146.968 108.865 146.728 108.875V108.484C147.259 108.484 147.603 108.417 147.759 108.281C147.916 108.146 147.994 107.812 147.994 107.281V103.609C147.994 103.328 147.983 103.104 147.963 102.938C147.942 102.771 147.9 102.641 147.838 102.547C147.775 102.453 147.681 102.391 147.556 102.359C147.431 102.328 147.259 102.312 147.041 102.312V101.984C147.374 101.932 147.676 101.854 147.947 101.75C148.228 101.646 148.489 101.484 148.728 101.266H149.009C148.978 101.547 148.957 101.839 148.947 102.141C148.947 102.443 148.947 102.719 148.947 102.969ZM164.484 106.828C164.484 107.432 164.573 107.844 164.75 108.062C164.927 108.281 165.167 108.391 165.469 108.391C165.562 108.391 165.677 108.375 165.812 108.344C165.958 108.312 166.099 108.271 166.234 108.219C166.38 108.167 166.51 108.115 166.625 108.062C166.74 108.01 166.828 107.958 166.891 107.906L167.031 108.125C166.729 108.438 166.411 108.688 166.078 108.875C165.745 109.052 165.38 109.141 164.984 109.141C164.526 109.141 164.167 109.01 163.906 108.75C163.646 108.49 163.516 108.109 163.516 107.609V102.375H162.422V102.078C162.943 101.932 163.333 101.677 163.594 101.312C163.854 100.948 164.042 100.438 164.156 99.7812H164.484V101.688H166.984V102.375H164.484V106.828Z" fill="black"/>
<path d="M39.0352 75.3906H37.2383V80.1172C39.1654 80.5469 40.3763 81.0677 40.8711 81.6797L40.4609 85H29.6602L29.2695 81.6797C29.6211 81.224 30.3568 80.7812 31.4766 80.3516V62.0703C30.3698 61.6797 29.6341 61.2305 29.2695 60.7227L29.6602 57.4023H40.2656C42.7396 57.4284 44.7904 57.7279 46.418 58.3008C48.0586 58.8607 49.2826 59.7852 50.0898 61.0742C50.8971 62.3633 51.3008 64.1146 51.3008 66.3281C51.3008 72.3698 47.2122 75.3906 39.0352 75.3906ZM39.6211 61.7578H37.2383V71.0352H39.9141C41.724 71.0352 43.0716 70.6771 43.957 69.9609C44.8555 69.2318 45.3047 67.9818 45.3047 66.2109C45.3047 64.4271 44.8164 63.2422 43.8398 62.6562C42.8763 62.0573 41.4701 61.7578 39.6211 61.7578ZM60.0938 67.9688C60.0938 67.7604 60.0938 67.5521 60.0938 67.3438C60.1068 67.1224 60.1198 66.901 60.1328 66.6797C62.6198 65.3516 65.2891 64.6875 68.1406 64.6875C70.9922 64.6875 73.0365 65.2279 74.2734 66.3086C75.5104 67.3893 76.1289 69.1797 76.1289 71.6797V80.1953C77.0534 80.3906 77.7891 80.6185 78.3359 80.8789V84.3555C77.0078 84.9935 75.0612 85.3125 72.4961 85.3125C72.2227 84.5964 71.9948 83.7565 71.8125 82.793C70.6667 84.4727 68.5898 85.3125 65.582 85.3125C64.3971 85.3125 63.3099 85.0781 62.3203 84.6094C61.3438 84.1406 60.5625 83.4766 59.9766 82.6172C59.3906 81.7448 59.0977 80.7096 59.0977 79.5117C59.0977 77.7279 59.6901 76.3281 60.875 75.3125C62.0599 74.2839 63.8242 73.7695 66.168 73.7695H70.543V71.8359C70.543 69.7526 69.4362 68.7109 67.2227 68.7109C66.3633 68.7109 65.6797 68.7956 65.1719 68.9648C65.1068 70.0977 64.9505 70.9635 64.7031 71.5625H60.7773C60.3216 70.612 60.0938 69.4141 60.0938 67.9688ZM67.3008 81.2305C68.668 81.2305 69.7487 80.8333 70.543 80.0391V76.7578H67.7305C65.8164 76.7578 64.8594 77.4935 64.8594 78.9648C64.8594 79.6289 65.0612 80.1758 65.4648 80.6055C65.8815 81.0221 66.4935 81.2305 67.3008 81.2305ZM97.7539 69.9219C95.7487 69.9219 94.349 70.306 93.5547 71.0742V80.2344C95.7422 80.651 97.2266 81.2109 98.0078 81.9141L97.5977 85H86.1523L85.7617 81.9141C86.1263 81.4062 86.862 80.957 87.9688 80.5664V69.4336C87.0182 69.1211 86.2826 68.6719 85.7617 68.0859L86.1523 65C87.5846 64.6745 88.9062 64.5117 90.1172 64.5117C90.7031 64.5117 91.237 64.5247 91.7188 64.5508C92.2135 64.5638 92.6562 64.5833 93.0469 64.6094V67.1289C93.6589 66.3997 94.4466 65.8008 95.4102 65.332C96.2174 64.9544 97.0247 64.7331 97.832 64.668C98.6393 64.6029 99.2448 64.6615 99.6484 64.8438L99.5312 70.0391C99.0104 69.9609 98.418 69.9219 97.7539 69.9219ZM107.25 67.9688C107.25 67.7604 107.25 67.5521 107.25 67.3438C107.263 67.1224 107.276 66.901 107.289 66.6797C109.776 65.3516 112.445 64.6875 115.297 64.6875C118.148 64.6875 120.193 65.2279 121.43 66.3086C122.667 67.3893 123.285 69.1797 123.285 71.6797V80.1953C124.21 80.3906 124.945 80.6185 125.492 80.8789V84.3555C124.164 84.9935 122.217 85.3125 119.652 85.3125C119.379 84.5964 119.151 83.7565 118.969 82.793C117.823 84.4727 115.746 85.3125 112.738 85.3125C111.553 85.3125 110.466 85.0781 109.477 84.6094C108.5 84.1406 107.719 83.4766 107.133 82.6172C106.547 81.7448 106.254 80.7096 106.254 79.5117C106.254 77.7279 106.846 76.3281 108.031 75.3125C109.216 74.2839 110.98 73.7695 113.324 73.7695H117.699V71.8359C117.699 69.7526 116.592 68.7109 114.379 68.7109C113.52 68.7109 112.836 68.7956 112.328 68.9648C112.263 70.0977 112.107 70.9635 111.859 71.5625H107.934C107.478 70.612 107.25 69.4141 107.25 67.9688ZM114.457 81.2305C115.824 81.2305 116.905 80.8333 117.699 80.0391V76.7578H114.887C112.973 76.7578 112.016 77.4935 112.016 78.9648C112.016 79.6289 112.217 80.1758 112.621 80.6055C113.038 81.0221 113.65 81.2305 114.457 81.2305ZM142.918 59.6875L143.309 56.6016C144.832 56.25 146.29 56.0742 147.684 56.0742C149.064 56.0742 150.249 56.1133 151.238 56.1914V80.1953C152.059 80.3385 152.794 80.5664 153.445 80.8789V84.043C151.831 84.8893 149.799 85.3125 147.352 85.3125C147.091 85.1823 146.831 84.9479 146.57 84.6094C146.323 84.2578 146.186 83.9193 146.16 83.5938C145.574 84.0755 144.812 84.4857 143.875 84.8242C142.938 85.1497 142.02 85.3125 141.121 85.3125C138.243 85.3125 136.154 84.5378 134.852 82.9883C133.562 81.4258 132.918 78.8672 132.918 75.3125C132.918 71.2891 133.908 68.4635 135.887 66.8359C137.632 65.4036 139.76 64.6875 142.273 64.6875C143.367 64.6875 144.487 64.8177 145.633 65.0781V61.1133C144.422 60.7878 143.517 60.3125 142.918 59.6875ZM141.961 81.2305C143.497 81.2305 144.721 80.7812 145.633 79.8828V69.1602C144.513 68.8997 143.354 68.7695 142.156 68.7695C140.932 68.7695 140.047 69.3034 139.5 70.3711C138.953 71.4388 138.68 73.0534 138.68 75.2148C138.68 77.3633 138.947 78.9062 139.48 79.8438C140.014 80.7682 140.841 81.2305 141.961 81.2305ZM161.184 68.0859L161.574 65C163.085 64.6484 164.478 64.4727 165.754 64.4727C166.392 64.4727 166.978 64.4857 167.512 64.5117C168.046 64.5247 168.534 64.5573 168.977 64.6094V80.5664C170.018 80.957 170.754 81.4062 171.184 81.9141L170.793 85H161.574L161.184 81.9141C161.548 81.4062 162.284 80.957 163.391 80.5664V69.4336C162.44 69.1211 161.704 68.6719 161.184 68.0859ZM186.773 68.2812C185.016 68.2812 184.137 68.8021 184.137 69.8438C184.137 70.8333 185.061 71.5625 186.91 72.0312L190.055 72.8711C193.31 73.7305 194.938 75.612 194.938 78.5156C194.938 80.5078 194.241 82.1419 192.848 83.418C192.145 84.043 191.201 84.5117 190.016 84.8242C188.831 85.1237 187.555 85.2865 186.188 85.3125C184.833 85.3385 183.518 85.2409 182.242 85.0195C180.966 84.7982 179.892 84.4727 179.02 84.043C179.007 83.8997 178.993 83.7565 178.98 83.6133C178.98 83.457 178.98 83.3073 178.98 83.1641C178.98 81.6927 179.273 80.3711 179.859 79.1992H183.18C183.544 79.8633 183.772 80.5273 183.863 81.1914C184.371 81.3607 185.133 81.4453 186.148 81.4453C188.492 81.4453 189.664 80.7747 189.664 79.4336C189.664 79.0169 189.508 78.6654 189.195 78.3789C188.857 78.1055 188.225 77.832 187.301 77.5586L184.137 76.6406C182.509 76.1849 181.24 75.5143 180.328 74.6289C179.43 73.7305 178.98 72.4089 178.98 70.6641C178.98 68.9062 179.69 67.474 181.109 66.3672C181.812 65.8073 182.691 65.3906 183.746 65.1172C184.814 64.8438 185.953 64.7005 187.164 64.6875C188.375 64.6615 189.56 64.7526 190.719 64.9609C191.878 65.1562 192.913 65.4492 193.824 65.8398C193.837 65.9701 193.844 66.1003 193.844 66.2305C193.857 66.3607 193.863 66.4974 193.863 66.6406C193.863 68.0078 193.57 69.2904 192.984 70.4883H189.703C189.339 69.8503 189.111 69.2057 189.02 68.5547C188.251 68.3724 187.503 68.2812 186.773 68.2812ZM212.441 85.3125C209.238 85.3125 206.829 84.4596 205.215 82.7539C203.6 81.0482 202.793 78.5677 202.793 75.3125C202.793 73.3464 203.073 71.6536 203.633 70.2344C204.193 68.8021 204.954 67.6953 205.918 66.9141C207.78 65.4297 209.954 64.6875 212.441 64.6875C214.095 64.6875 215.488 64.9609 216.621 65.5078C217.767 66.0417 218.633 66.9466 219.219 68.2227C219.818 69.4857 220.117 71.2109 220.117 73.3984C220.117 75.3255 219.167 76.2891 217.266 76.2891H208.594C208.698 77.9688 209.128 79.1536 209.883 79.8438C210.651 80.5339 211.862 80.8789 213.516 80.8789C214.414 80.8789 215.273 80.7747 216.094 80.5664C216.927 80.3451 217.533 80.1302 217.91 79.9219L218.477 79.6094L219.668 82.793C219.525 82.9622 219.297 83.1966 218.984 83.4961C218.776 83.6914 218.353 83.9323 217.715 84.2188C217.077 84.5052 216.296 84.7591 215.371 84.9805C214.46 85.2018 213.483 85.3125 212.441 85.3125ZM208.633 72.9688L214.961 72.7148C215.013 72.3893 215.039 71.9401 215.039 71.3672C215.039 70.8333 214.824 70.2669 214.395 69.668C213.965 69.069 213.223 68.7695 212.168 68.7695C211.113 68.7695 210.306 69.0885 209.746 69.7266C209.186 70.3646 208.815 71.4453 208.633 72.9688Z" fill="black"/>
</svg>
